# xmcd
#
# Track frame offsets:
#	150
#	22657
#	37907
#	53862
#	56202
#	71287
#	94612
#	107812
#	123937
#	146722
#	170512
#
# Disc length: 2514 seconds
#
# Revision: 1
# Processed by: cddbd v1.5.1PL0 Copyright (c) Steve Scherf et al.
# Submitted via: CDex 1.50Beta5
#
DISCID=8d09d00b
DTITLE=子供ばんど - 120% PURE
DYEAR=1900
DGENRE=Rock
TTITLE0=LAZY LOVE
TTITLE1=FEELING ALLRIGHT
TTITLE2=たすけて!SOMEBODY!
TTITLE3=JUST A BOY
TTITLE4=HEART OF MADNESS
TTITLE5=PURPLE EYES
TTITLE6=TANKにタイガー
TTITLE7=ゆかいなモーター・サイクル
TTITLE8=CALL ME TONIGHT
TTITLE9=DRY YOUR TEARS
TTITLE10=遠い日のバラード
EXTD=
EXTT0=
EXTT1=
EXTT2=
EXTT3=
EXTT4=
EXTT5=
EXTT6=
EXTT7=
EXTT8=
EXTT9=
EXTT10=
PLAYORDER=
